# xmcd
#
# Track frame offsets:
#	150
#	21412
#	42937
#	63595
#	82750
#	101177
#	125497
#	148300
#	165520
#	183305
#	200242
#	219197
#
# Disc length: 2938 seconds
#
# Revision: 1
# Processed by: cddbd v1.5.2PL0 Copyright (c) Steve Scherf et al.
# Submitted via: EasyCDDAExtractor 12.0.0.1
#
DISCID=af0b780c
DTITLE=Paulina Rubio - Paulina
DYEAR=2000
DGENRE=Latin
TTITLE0=Lo Hare Por Ti
TTITLE1=El Ultimo Adios
TTITLE2=Tal Vez, Quiza
TTITLE3=Y Yo Sigo Aqui
TTITLE4=Sin Aire
TTITLE5=Tan Sola
TTITLE6=Sexi Dance
TTITLE7=Cancun Y Yo
TTITLE8=Mirame A Los Ojos
TTITLE9=Yo No Soy Esa Mujer
TTITLE10=Vive El Verano
TTITLE11=Baby Paulina
EXTD=YEAR: 2000
EXTT0=
EXTT1=
EXTT2=
EXTT3=
EXTT4=
EXTT5=
EXTT6=
EXTT7=
EXTT8=
EXTT9=
EXTT10=
EXTT11=
PLAYORDER=
